<svg xmlns="http://www.w3.org/2000/svg" xmlns:xlink="http://www.w3.org/1999/xlink" width="426.117" height="473.11" viewBox="0 0 426.117 473.11">
  <defs>
    <filter id="Path_328" x="0" y="0" width="420.806" height="418.597" filterUnits="userSpaceOnUse">
      <feOffset dy="5" input="SourceAlpha"/>
      <feGaussianBlur stdDeviation="6" result="blur"/>
      <feFlood flood-opacity="0.161"/>
      <feComposite operator="in" in2="blur"/>
      <feComposite in="SourceGraphic"/>
    </filter>
    <filter id="Path_327" x="24.512" y="16.167" width="401.605" height="456.943" filterUnits="userSpaceOnUse">
      <feOffset dy="5" input="SourceAlpha"/>
      <feGaussianBlur stdDeviation="6" result="blur-2"/>
      <feFlood flood-opacity="0.161"/>
      <feComposite operator="in" in2="blur-2"/>
      <feComposite in="SourceGraphic"/>
    </filter>
  </defs>
  <g id="Group_2025" data-name="Group 2025" transform="translate(-1259.289 -12652.656)">
    <g transform="matrix(1, 0, 0, 1, 1259.29, 12652.66)" filter="url(#Path_328)">
      <path id="Path_328-2" data-name="Path 328" d="M.047,267.151S-5.615,397.406,106.76,346.513s212.02-79.362,212.02-79.362,51.6-11.114,40.289-70.8S315.937,35.706,315.937,35.706s-8.474-51.521-69.961-30.787S59.1,48.732,59.1,48.732,8.722,55.946,6.63,106.7.047,267.151.047,267.151Z" transform="translate(42.99 13) rotate(4)" fill="#b13592"/>
    </g>
    <g transform="matrix(1, 0, 0, 1, 1259.29, 12652.66)" filter="url(#Path_327)">
      <path id="Path_327-2" data-name="Path 327" d="M17261.449,538.471s-5.729,148.512,108.168,90.486,214.91-90.486,214.91-90.486,52.3-12.672,40.836-80.727-25.8-195.57-25.8-195.57-8.588-58.742-70.912-35.1-207.348,62.366-207.348,62.366-51.055,8.225-53.178,66.087S17261.449,538.471,17261.449,538.471Z" transform="translate(-17218.89 -192.3)" fill="#fff"/>
    </g>
  </g>
</svg>
