<svg xmlns="http://www.w3.org/2000/svg" width="84" height="15" viewBox="0 0 84 15">
  <g id="Group_2722" data-name="Group 2722" transform="translate(-2.264 0.109)">
    <g id="Group_2677" data-name="Group 2677" transform="translate(0 0)">
      <path id="Polygon_1" data-name="Polygon 1" d="M7.5,0,9.525,5.361,15,5.729,10.777,9.411,12.135,15,7.5,11.914,2.865,15,4.223,9.411,0,5.729l5.475-.368Z" transform="translate(2.264 -0.109)" fill="#ffbd07"/>
      <path id="Polygon_32" data-name="Polygon 32" d="M7.5,0,9.525,5.361,15,5.729,10.777,9.411,12.135,15,7.5,11.914,2.865,15,4.223,9.411,0,5.729l5.475-.368Z" transform="translate(19.264 -0.109)" fill="#ffbd07"/>
      <path id="Polygon_33" data-name="Polygon 33" d="M7.5,0,9.525,5.361,15,5.729,10.777,9.411,12.135,15,7.5,11.914,2.865,15,4.223,9.411,0,5.729l5.475-.368Z" transform="translate(36.264 -0.109)" fill="#ffbd07"/>
      <path id="Polygon_34" data-name="Polygon 34" d="M7.5,0,9.525,5.361,15,5.729,10.777,9.411,12.135,15,7.5,11.914,2.865,15,4.223,9.411,0,5.729l5.475-.368Z" transform="translate(53.264 -0.109)" fill="#ffbd07"/>
      <path id="Polygon_35" data-name="Polygon 35" d="M7.5,0,9.525,5.361,15,5.729,10.777,9.411,12.135,15,7.5,11.914,2.865,15,4.223,9.411,0,5.729l5.475-.368Z" transform="translate(71.264 -0.109)" fill="#949494"/>
    </g>
  </g>
</svg>
